<svg width="5" height="23" viewBox="0 0 5 23" fill="none" xmlns="http://www.w3.org/2000/svg">
<path d="M5 2.5C5 3.88076 3.88076 5 2.5 5C1.11924 5 0 3.88076 0 2.5C0 1.11924 1.11924 0 2.5 0C3.88076 0 5 1.11924 5 2.5Z" fill="black"/>
<path d="M5 11.5C5 12.8808 3.88076 14 2.5 14C1.11924 14 0 12.8808 0 11.5C0 10.1192 1.11924 9 2.5 9C3.88076 9 5 10.1192 5 11.5Z" fill="black"/>
<path d="M5 20.5C5 21.8808 3.88076 23 2.5 23C1.11924 23 0 21.8808 0 20.5C0 19.1192 1.11924 18 2.5 18C3.88076 18 5 19.1192 5 20.5Z" fill="black"/>
</svg>
