<svg
            xmlns="http://www.w3.org/2000/svg"
            width="16"
            height="16"
            viewBox="0 0 16 16"
            fill="none"
          >
            <path
              fill-rule="evenodd"
              clip-rule="evenodd"
              d="M8.8 5.6V4H7.2V5.6H8.8ZM8.8 12V7.2H7.2V12H8.8ZM0 8C0 3.584 3.576 0 7.992 0C12.416 0 16 3.584 16 8C16 12.416 12.416 16 7.992 16C3.576 16 0 12.416 0 8ZM1.6 8C1.6 11.536 4.464 14.4 8 14.4C11.536 14.4 14.4 11.536 14.4 8C14.4 4.464 11.536 1.6 8 1.6C4.464 1.6 1.6 4.464 1.6 8Z"
              fill="black"
            />
          </svg>