<svg xmlns="http://www.w3.org/2000/svg" width="15" height="15" viewBox="0 0 15 15" fill="none">
  <path fill-rule="evenodd" clip-rule="evenodd" d="M13 2.00003H14.4999C14.7762 2.00003 15 2.22386 15 2.49991C15 2.77614 14.7762 2.99997 14.4999 2.99997H13V4.49995C13 4.77601 12.7761 5 12.5001 5C12.2239 5 12 4.77601 12 4.49995V2.99997H10.5001C10.224 2.99997 10 2.77614 10 2.49991C10 2.22386 10.224 2.00003 10.5001 2.00003H12V0.500051C12 0.223827 12.2239 0 12.5001 0C12.7761 0 13 0.223827 13 0.500051V2.00003ZM13.125 12.476V7.42781C13.125 7.1491 12.899 6.92295 12.6203 6.92295C12.3414 6.92295 12.1154 7.1491 12.1154 7.42781V12.476C12.1154 12.8776 11.9559 13.2628 11.6719 13.5468C11.3878 13.8309 11.0026 13.9904 10.601 13.9904H2.52398C2.12239 13.9904 1.73719 13.8309 1.45324 13.5468C1.16911 13.2628 1.00956 12.8776 1.00956 12.476V4.39898C1.00956 3.99739 1.16911 3.61219 1.45324 3.32806C1.73717 3.04411 2.12239 2.88456 2.52398 2.88456H7.57219C7.8509 2.88456 8.07705 2.65857 8.07705 2.37969C8.07705 2.10098 7.8509 1.875 7.57219 1.875H2.52398C1.85464 1.875 1.21257 2.14089 0.739296 2.6143C0.265867 3.08753 0 3.72947 0 4.39898V12.476C0 13.1454 0.265889 13.7874 0.739296 14.2607C1.21253 14.7341 1.85464 15 2.52398 15H10.601C11.2705 15 11.9124 14.7341 12.3857 14.2607C12.8591 13.7875 13.125 13.1454 13.125 12.476Z" fill="white"/>
</svg>