<svg xmlns="http://www.w3.org/2000/svg" width="20" height="20" viewBox="0 0 20 20" fill="none">
<path fill-rule="evenodd" clip-rule="evenodd" d="M14.4904 13.5662L19.8087 18.8844C20.0638 19.1398 20.0638 19.5537 19.8086 19.8085C19.6809 19.9362 19.5139 20 19.3465 20C19.1798 20 19.0122 19.9362 18.8845 19.8085L13.566 14.4903C12.0781 15.7624 10.2077 16.4581 8.22899 16.4581C6.03048 16.4581 3.9643 15.6017 2.41017 14.0476C0.855742 12.4933 0 10.4269 0 8.22885C0 6.03102 0.855889 3.96457 2.41002 2.41044C3.96434 0.855882 6.03051 0 8.22884 0C10.4267 0 12.4934 0.856177 14.0477 2.41044C15.6019 3.96475 16.4581 6.0312 16.4581 8.22922C16.4581 10.2075 15.7626 12.0785 14.4904 13.5662ZM3.41599 13.0126C4.69781 14.2939 6.40129 15 8.2141 15V14.9998C10.0265 14.9998 11.7307 14.2936 13.0126 13.0124C14.2939 11.7304 15 10.0266 15 8.21389C15 6.4018 14.2939 4.69749 13.0126 3.41613C11.7306 2.13464 10.0265 1.42857 8.2141 1.42857C6.40166 1.42857 4.69774 2.13435 3.41599 3.41599C2.13438 4.69756 1.42857 6.40144 1.42857 8.2141C1.42857 10.0267 2.13424 11.7308 3.41599 13.0126Z" fill="black"/>
</svg>