<svg xmlns="http://www.w3.org/2000/svg" width="18" height="13" viewBox="0 0 18 13" fill="none">
  <path d="M12.2142 6.48633C12.2142 8.24346 10.7752 9.66797 9.00019 9.66797C7.22515 9.66797 5.78613 8.24346 5.78613 6.48633C5.78613 4.72919 7.22515 3.30469 9.00019 3.30469C10.7752 3.30469 12.2142 4.72919 12.2142 6.48633Z" fill="white"/>
  <path d="M5.36758 1.98962C5.2472 1.87116 5.0842 1.80469 4.91445 1.80469C4.74457 1.80469 4.58171 1.87116 4.46118 1.98962C3.25604 3.18301 2.5791 4.80124 2.5791 6.48864C2.5791 8.17604 3.25607 9.79413 4.46118 10.9877C4.58099 11.1051 4.74255 11.1715 4.91114 11.1722C5.08203 11.1732 5.24632 11.1067 5.36758 10.9877C5.48925 10.8681 5.55769 10.7054 5.55769 10.5358C5.55769 10.3661 5.48925 10.2035 5.36758 10.084C4.40579 9.12965 3.86571 7.83667 3.86571 6.48875C3.86571 5.14082 4.40579 3.84784 5.36758 2.8935C5.48925 2.77404 5.55769 2.61141 5.55769 2.44167C5.55769 2.27207 5.48925 2.10944 5.36758 1.98984V1.98962Z" fill="white"/>
  <path d="M13.5379 1.98962C13.4174 1.87116 13.2545 1.80469 13.0847 1.80469C12.9149 1.80469 12.7519 1.87116 12.6315 1.98962C12.5098 2.10922 12.4414 2.27185 12.4414 2.44145C12.4414 2.61118 12.5098 2.77381 12.6315 2.89328C13.5933 3.84762 14.1334 5.14061 14.1334 6.48853C14.1334 7.83645 13.5933 9.12944 12.6315 10.0838C12.5098 10.2032 12.4414 10.3659 12.4414 10.5356C12.4414 10.7052 12.5098 10.8678 12.6315 10.9874C12.7528 11.1065 12.9171 11.1729 13.088 11.1719C13.2565 11.1712 13.4181 11.1049 13.5379 10.9874C14.7431 9.79405 15.42 8.17582 15.42 6.48842C15.42 4.80102 14.743 3.18293 13.5379 1.9894V1.98962Z" fill="white"/>
  <path d="M1.28628 6.48677C1.28398 5.48384 1.48285 4.49044 1.87127 3.56421C2.25969 2.63797 2.8299 1.79725 3.54904 1.09078C3.71204 0.929285 3.77575 0.694076 3.71606 0.473616C3.65637 0.253032 3.48232 0.0808741 3.25963 0.0217866C3.03693 -0.037301 2.79919 0.0257638 2.63618 0.187119C1.51901 1.29288 0.715641 2.67036 0.306703 4.18108C-0.102234 5.69165 -0.102234 7.28218 0.306703 8.79282C0.715641 10.3034 1.51901 11.6809 2.63618 12.7868C2.75685 12.9072 2.92113 12.975 3.09261 12.975C3.26393 12.975 3.42822 12.9072 3.54904 12.7868C3.67071 12.6673 3.73916 12.5047 3.73916 12.3349C3.73916 12.1654 3.67071 12.0027 3.54904 11.8831C2.8299 11.1766 2.25967 10.3359 1.87127 9.40969C1.48286 8.48349 1.284 7.49005 1.28627 6.48713L1.28628 6.48677Z" fill="white"/>
  <path d="M15.3637 0.187119C15.2007 0.0257644 14.963 -0.0373011 14.7403 0.0217865C14.5176 0.080874 14.3435 0.253024 14.2838 0.473616C14.2242 0.694058 14.2879 0.929263 14.4509 1.09078C15.4122 2.03902 16.1037 3.2215 16.4558 4.51884C16.8077 5.81637 16.8077 7.18262 16.4558 8.48008C16.1037 9.77746 15.4122 10.9599 14.4509 11.9083C14.3292 12.0277 14.2607 12.1904 14.2607 12.36C14.2607 12.5297 14.3292 12.6923 14.4509 12.8118C14.5717 12.9322 14.736 13 14.9073 13C15.0788 13 15.243 12.9322 15.3637 12.8118C16.4809 11.706 17.2843 10.3287 17.6932 8.81784C18.1021 7.30727 18.1021 5.71674 17.6932 4.2061C17.2843 2.69553 16.4809 1.31804 15.3637 0.212139L15.3637 0.187119Z" fill="white"/>
</svg>